<?xml version="1.0" encoding="utf-8"?>
<svg version="1.1" xmlns="http://www.w3.org/2000/svg" xmlns:xlink="http://www.w3.org/1999/xlink" x="0px" y="0px"
	 viewBox="0 0 284.3 249.4" style="enable-background:new 0 0 284.3 249.4;" xml:space="preserve">
<style type="text/css">
	.logo-sunBorder{fill-rule:evenodd;clip-rule:evenodd;fill:none;stroke:#D39C0A;stroke-width:0.577;stroke-linecap:square;stroke-linejoin:round;stroke-miterlimit:7;}
	.logo-sunCenter{fill-rule:evenodd;clip-rule:evenodd;fill:#D39C0A;}
	.logo-hat{fill-rule:evenodd;clip-rule:evenodd;fill:#FFFFFF;stroke:#D39C0A;stroke-width:1.049;}
</style>

<g id="logo-illustration">
	<g class="logo-sun">
		<path class="logo-sunBorder" d="M199.9,62.6c1.5-1,2.9-2.8,2.9-2.8s-1.6-0.9-5.7-0.7c-2.8,0.2-7.4,2.3-7.4,2.3c3.3-1.5,3.3-1.5,5.1-3
			c0.7-0.6,1.3-1.4,1.3-1.4s-1.5-0.3-3-0.2c-1.7,0.2-4.4,1.3-4.4,1.3s3.7-1.5,6.1-3.3c2.9-2.1,4.2-4.2,4.2-4.2s-1.4-0.9-5.2,0
			c-2.2,0.5-6.2,2.2-6.2,2.2s6-3.5,9-6.4c2.6-2.6,3-4.2,3-4.2s-0.8-0.7-4.2,0.2c-2.7,0.7-6.2,2.5-6.2,2.5s2.6-1.9,6.1-5.1
			c3.9-3.6,4.9-6.9,4.9-6.9s-1.8-0.4-5.4,1.1c-2.1,0.8-6.9,4.3-6.9,4.3s4.9-4.6,7.5-8.2c3.1-4.3,3.3-6.9,3.3-6.9s-1.7-0.5-6.8,3.1
			c-4.4,3.1-11,10.8-11,10.8s5.4-6.8,7.3-10.6c1.3-2.6,1.4-5.3,1.4-5.3s-2.8,0.7-6.9,4.3c-3.2,2.8-7.9,9.5-7.9,9.5s2.9-5.1,3.8-7.9
			c1-3,0.9-5.1,0.9-5.1s-2.8,1.2-5.5,3.7c-2.9,2.6-6.6,9.3-6.6,9.3l2.5-4.7c0,0,0.5-1,1-3.2c0.4-1.8,0.1-4,0.1-4s-1.8,0.5-4.5,3.5
			c-1.8,2.1-3.5,6.9-3.5,6.9c1.3-3.4,1.3-3.4,1.5-5.7c0.1-1-0.1-1.9-0.1-1.9s-1.3,0.8-2.2,2c-1.1,1.3-2.2,4-2.2,4s1.5-3.6,2-6.6
			c0.6-3.5,0-5.9,0-5.9s-1.7,0.4-3.7,3.7c-1.2,1.9-2.8,5.9-2.8,5.9s1.8-6.7,1.8-10.9c0-3.7-0.8-5.1-0.8-5.1s-1.1,0.1-2.8,3.1
			c-1.4,2.4-2.6,6.2-2.6,6.2s0.5-3.2,0.7-7.9c0.3-5.3-1.4-8.4-1.4-8.4s-1.5,0.9-3.1,4.6c-0.9,2.1-1.9,7.9-1.9,7.9s0.2-6.7-0.5-11.1
			c-0.8-5.2-2.6-7.2-2.6-7.2s-1.5,0.9-2.6,7c-0.9,5.3-0.1,15.4-0.1,15.4s-0.9-8.6-2.4-12.7c-1-2.7-2.7-4.7-2.7-4.7s-1.5,2.5-1.8,7.9
			c-0.2,4.3,1.2,12.3,1.2,12.3s-1.5-5.7-2.8-8.3c-1.4-2.8-3-4.3-3-4.3s-0.7,1.8-0.8,5.4c-0.1,3.4,0.7,8.4,0.7,8.4s-0.5-3.1-2-5.4
			c-1.5-2.3-2.8-2.9-2.8-2.9s-0.9,1.6-0.7,5.7c0.2,2.8,2.3,7.4,2.3,7.4c-1.5-3.3-1.5-3.3-3-5.1c-0.6-0.7-1.4-1.3-1.4-1.3
			s-0.3,1.5-0.2,3c0.2,1.7,1.3,4.4,1.3,4.4s-1.5-3.7-3.3-6.1c-2.1-2.9-4.2-4.2-4.2-4.2s-0.9,1.4,0,5.2c0.5,2.2,2.2,6.2,2.2,6.2
			s-3.5-6-6.4-8.9c-2.6-2.6-4.2-3-4.2-3s-0.7,0.8,0.2,4.2c0.7,2.7,2.5,6.2,2.5,6.2s-1.9-2.6-5.1-6.1C99.8,22,96.4,21,96.4,21
			s-0.4,1.8,1.1,5.4c0.8,2.1,4.3,6.9,4.3,6.9s-4.6-4.9-8.2-7.5c-4.3-3.1-6.9-3.3-6.9-3.3s-0.5,1.7,3.1,6.8c3.1,4.4,10.8,11,10.8,11
			s-6.8-5.4-10.6-7.3c-2.6-1.3-5.3-1.4-5.3-1.4s0.7,2.8,4.3,6.9c2.8,3.2,9.5,7.9,9.5,7.9s-5.1-2.9-7.9-3.8c-3-1-5.1-0.9-5.1-0.9
			s1.2,2.8,3.7,5.5c2.7,2.9,9.3,6.6,9.3,6.6l-4.7-2.5c0,0-1-0.5-3.2-1c-1.8-0.4-4-0.1-4-0.1s0.5,1.8,3.5,4.5
			c2.1,1.8,6.9,3.5,6.9,3.5c-3.4-1.3-3.4-1.3-5.7-1.5c-1-0.1-1.9,0.1-1.9,0.1s0.8,1.3,2,2.2c1.3,1.1,4,2.2,4,2.2s-3.6-1.5-6.6-2
			c-3.5-0.6-5.9,0-5.9,0s0.4,1.7,3.7,3.7c1.9,1.2,5.9,2.8,5.9,2.8s-6.7-1.8-10.9-1.8c-3.7,0-5.1,0.8-5.1,0.8s0.1,1.1,3.1,2.8
			c2.4,1.4,6.2,2.6,6.2,2.6s-3.2-0.5-7.9-0.7c-5.3-0.3-8.4,1.4-8.4,1.4s0.9,1.5,4.6,3.1c2.1,0.9,7.9,1.9,7.9,1.9s-6.7-0.2-11.1,0.5
			c-5.2,0.8-7.2,2.6-7.2,2.6s0.9,1.5,7,2.6c5.3,0.9,15.4,0.1,15.4,0.1s-8.6,0.9-12.7,2.4c-2.7,1-4.7,2.7-4.7,2.7s2.5,1.5,7.9,1.8
			c4.3,0.2,12.3-1.2,12.3-1.2s-5.7,1.5-8.3,2.8c-2.8,1.4-4.3,3-4.3,3s1.8,0.8,5.4,0.8c3,0,11.1-1.8,11.1-1.8s-4.9,1.4-7.6,3
			c-2.6,1.6-3.8,3.2-3.8,3.2s1.6,0.9,5.7,0.7c2.8-0.2,7.4-2.3,7.4-2.3c-3.3,1.5-3.3,1.5-5.1,3c-0.7,0.6-1.3,1.4-1.3,1.4
			s1.5,0.3,3,0.2c1.7-0.2,4.4-1.3,4.4-1.3s-3.7,1.5-6.1,3.3c-2.9,2.1-4.2,4.2-4.2,4.2s1.4,0.9,5.2,0c2.2-0.5,6.2-2.2,6.2-2.2
			s-6,3.5-8.9,6.4c-2.6,2.6-3,4.2-3,4.2s0.8,0.7,4.2-0.2c2.7-0.7,6.2-2.5,6.2-2.5s-2.6,1.9-6.1,5.1c-3.9,3.6-4.9,6.9-4.9,6.9
			s1.8,0.4,5.4-1.1c2.1-0.8,6.9-4.3,6.9-4.3s-4.9,4.6-7.5,8.2c-3.1,4.3-3.3,6.9-3.3,6.9s1.7,0.5,6.8-3.1c4.4-3.1,11-10.8,11-10.8
			s-5.4,6.8-7.3,10.6c-1.3,2.6-1.4,5.3-1.4,5.3s2.8-0.7,6.9-4.3c3.2-2.8,7.9-9.5,7.9-9.5s-2.9,5.1-3.8,7.9c-1,3-0.9,5.1-0.9,5.1
			s2.8-1.2,5.5-3.7c2.9-2.6,6.6-9.3,6.6-9.3l-2.5,4.7c0,0-0.5,1-1,3.2c-0.4,1.8-0.1,4-0.1,4s1.8-0.5,4.5-3.5
			c1.8-2.1,3.5-6.9,3.5-6.9c-1.3,3.4-1.3,3.4-1.5,5.7c-0.1,1,0.1,1.9,0.1,1.9s1.3-0.8,2.2-2c1.1-1.3,2.2-4,2.2-4s-1.5,3.6-2,6.6
			c-0.6,3.5,0,5.9,0,5.9s1.7-0.4,3.7-3.7c1.2-1.9,2.8-5.9,2.8-5.9s-1.8,6.7-1.8,10.9c0,3.7,0.8,5.1,0.8,5.1s1.1-0.1,2.8-3.1
			c1.4-2.4,2.6-6.2,2.6-6.2s-0.5,3.2-0.7,7.9c-0.3,5.3,1.4,8.4,1.4,8.4s1.5-0.9,3.1-4.6c0.9-2.1,1.9-7.9,1.9-7.9s-0.2,6.7,0.5,11.1
			c0.8,5.2,2.6,7.2,2.6,7.2s1.5-0.9,2.6-7c0.9-5.3,0.1-15.4,0.1-15.4s0.9,8.6,2.4,12.7c1,2.7,2.7,4.7,2.7,4.7s1.5-2.5,1.8-7.9
			c0.2-4.3-1.2-12.3-1.2-12.3s1.5,5.7,2.8,8.3c1.4,2.8,3,4.3,3,4.3s0.7-1.8,0.8-5.4c0.1-3.4-0.7-8.4-0.7-8.4s0.5,3.1,2,5.4
			c1.5,2.3,2.8,2.9,2.8,2.9s0.9-1.6,0.7-5.7c-0.2-2.8-2.3-7.4-2.3-7.4c1.5,3.3,1.5,3.3,3,5.1c0.6,0.7,1.4,1.3,1.4,1.3s0.3-1.5,0.2-3
			c-0.2-1.7-1.3-4.4-1.3-4.4s1.5,3.7,3.3,6.1c2.1,2.9,4.2,4.2,4.2,4.2s0.9-1.4,0-5.2c-0.5-2.2-2.2-6.2-2.2-6.2s3.5,6,6.4,8.9
			c2.6,2.6,4.2,3,4.2,3s0.7-0.8-0.2-4.2c-0.7-2.7-2.5-6.2-2.5-6.2s1.9,2.6,5.1,6.1c3.6,3.9,6.9,4.9,6.9,4.9s0.4-1.8-1.1-5.4
			c-0.8-2.1-4.3-6.9-4.3-6.9s4.6,4.9,8.2,7.5c4.3,3.1,6.9,3.3,6.9,3.3s0.5-1.7-3.1-6.8c-3.1-4.4-10.8-11-10.8-11s6.8,5.4,10.6,7.3
			c2.6,1.3,5.3,1.4,5.3,1.4s-0.7-2.8-4.3-6.9c-2.8-3.2-9.5-7.9-9.5-7.9s5.1,2.9,7.9,3.8c3,1,5.1,0.9,5.1,0.9s-1.2-2.8-3.7-5.5
			c-2.7-2.9-9.3-6.6-9.3-6.6l4.7,2.5c0,0,1,0.5,3.2,1c1.8,0.4,4,0.1,4,0.1s-0.5-1.8-3.5-4.5c-2.1-1.8-6.9-3.5-6.9-3.5
			c3.4,1.3,3.4,1.3,5.7,1.5c1,0.1,1.9-0.1,1.9-0.1s-0.8-1.3-2-2.2c-1.3-1.1-4-2.2-4-2.2s3.6,1.5,6.6,2c3.5,0.6,5.9,0,5.9,0
			s-0.4-1.7-3.7-3.7c-1.9-1.2-5.9-2.8-5.9-2.8s6.7,1.8,10.9,1.8c3.7,0,5.1-0.8,5.1-0.8s-0.1-1.1-3.1-2.8c-2.4-1.4-6.2-2.6-6.2-2.6
			s3.2,0.5,7.9,0.7c5.3,0.3,8.4-1.4,8.4-1.4s-0.9-1.5-4.6-3.1c-2.1-0.9-7.9-1.9-7.9-1.9s6.7,0.2,11.1-0.5c5.2-0.8,7.2-2.6,7.2-2.6
			s-0.9-1.5-7-2.6c-5.3-0.9-15.4-0.1-15.4-0.1s8.6-0.9,12.7-2.4c2.7-1,4.7-2.7,4.7-2.7s-2.5-1.5-7.9-1.8c-4.3-0.2-12.3,1.2-12.3,1.2
			s5.7-1.5,8.3-2.8c2.8-1.4,4.3-3,4.3-3s-1.8-0.8-5.4-0.8c-3,0-9.9,1.3-9.9,1.3S197.2,64.5,199.9,62.6z"/>

		<path class="logo-sunCenter" d="M213.7,79.2c-0.1,0-9.9,0.4-15.8,0.4c-4.3,0-8.6-0.2-11.1-0.3c0,0,0,0,0,0c0-0.6,0-1.2,0-1.8
			c3.7,0,11.8,0,16.6-1.6c3.3-1.1,7-2.8,7-2.9c0.1-0.1,0.2-0.2,0.1-0.3c0-0.1-0.2-0.2-0.3-0.2c-0.1,0-9.5,1.2-14.7,1.6
			c-3.2,0.3-6.8,0.4-8.9,0.5c-0.1-0.6-0.1-1.2-0.2-1.8c2.8-0.3,7.8-0.9,11.2-2.2c3.3-1.2,6.7-3.6,6.7-3.6c0.1-0.1,0.2-0.2,0.1-0.4
			c-0.1-0.1-0.2-0.2-0.3-0.2c-0.1,0-6.3,1.6-9.3,2.1c-2.7,0.5-6.6,1-8.8,1.3c-0.1-0.6-0.3-1.2-0.4-1.8l0,0c1-0.2,1.6-0.2,4.6-1.3
			c5.7-2,9.5-5.1,9.6-5.1c0.1-0.1,0.1-0.3,0.1-0.4c-0.1-0.1-0.2-0.2-0.4-0.1c0,0-2.1,0.9-8.6,3c-4.1,1.3-5.4,1.6-5.9,1.7
			c-0.1-0.4-0.3-0.9-0.5-1.3c1.2-0.5,2.9-1.3,5.1-2.5c1.3-0.7,3.5-2.8,3.6-2.9c0.1-0.1,0.1-0.3,0-0.4c-0.1-0.1-0.2-0.2-0.4-0.1
			c0,0-3.2,1.5-4.8,2.2l-4.3,1.6c-0.2-0.4-0.3-0.8-0.5-1.1c0.8-0.3,1.5-0.5,4-1.9c5.3-2.9,8.6-6.5,8.6-6.6c0.1-0.1,0.1-0.3,0-0.4
			c-0.1-0.1-0.3-0.1-0.4,0c0,0-1.9,1.3-8,4.3c-3.1,1.6-4.5,2.2-5.2,2.5c-0.3-0.5-0.6-1.1-0.8-1.6c1.7-0.9,4-2.5,7-4.7
			c4.5-3.4,7.7-7.4,7.7-7.4c0.1-0.1,0.1-0.3,0-0.4c-0.1-0.1-0.3-0.1-0.4,0l-8.8,5.8c-3.5,2.4-5.9,3.7-7,4.4
			c-0.3-0.4-0.6-0.9-0.9-1.3c2.1-1.5,6.6-5.2,10-8.3c4.2-3.8,7.5-9,7.5-9c0.1-0.1,0-0.3-0.1-0.4c-0.1-0.1-0.3-0.1-0.4,0
			c0,0-4.8,4.2-10.1,8.4c-3.6,2.9-7.2,5.5-8.9,6.6c-0.4-0.5-0.8-0.9-1.1-1.4c1.9-1.5,7.4-6.1,11.7-10.9c3.8-4.2,6.6-10.6,6.7-10.7
			c0.1-0.1,0-0.3-0.1-0.4c-0.1-0.1-0.3-0.1-0.4,0c-0.1,0.1-6.7,7.2-10.9,11.5c-3.6,3.6-7.3,6.9-8.9,8.3c-0.4-0.4-0.8-0.8-1.3-1.2
			c2.1-2,8.9-8.7,11.4-13.6c1.6-3.1,2.9-6.9,2.9-7c0-0.1,0-0.3-0.1-0.3c-0.1-0.1-0.3,0-0.4,0.1c-0.1,0.1-5.9,7.6-9.3,11.5
			c-2.5,3-5.4,6.1-6.7,7.4c-0.4-0.4-0.9-0.7-1.4-1.1c1.5-1.8,5.3-6.4,7-10.3c1.4-3.2,2.2-7.2,2.2-7.3c0-0.1-0.1-0.3-0.2-0.3
			c-0.1,0-0.3,0-0.3,0.1c0,0.1-3.3,5.5-5.1,8.1c-1.8,2.6-4.9,6.6-6,8c-0.6-0.4-1.1-0.7-1.7-1.1c0.5-0.6,0.9-1.4,2-3.7
			c2.6-5.5,3.1-10.3,3.1-10.4c0-0.1-0.1-0.3-0.2-0.3c-0.1,0-0.3,0-0.3,0.2c0,0-0.8,2.1-4,8.2c-1.5,2.8-2.3,4.2-2.7,4.9
			c-0.4-0.2-0.9-0.5-1.3-0.7c0.5-1.2,1-2.8,1.6-4.9c0.4-1.4,0.5-4.4,0.5-4.6c0-0.1-0.1-0.3-0.2-0.3c-0.1,0-0.3,0.1-0.3,0.2
			c0,0-1.2,3.4-1.9,5l-1.7,3.7c-0.4-0.2-0.8-0.3-1.1-0.4c0.3-0.7,0.6-1.5,1.2-3.6c1.7-5.8,1.4-10.7,1.4-10.7c0-0.1-0.1-0.3-0.3-0.3
			c-0.1,0-0.3,0.1-0.3,0.2c0,0-0.4,2.2-2.6,8.7c-0.9,2.6-1.4,4.1-1.7,4.9c-0.6-0.2-1.2-0.4-1.8-0.5c0.5-1.8,1-4.4,1.5-7.7
			c0.8-5.6,0.2-10.7,0.2-10.7c0-0.1-0.1-0.3-0.3-0.3c-0.1,0-0.3,0.1-0.3,0.2l-2.1,10.3c-0.7,3.6-1.3,6.1-1.7,7.5
			c-0.5-0.1-1.1-0.2-1.6-0.3c0.4-2.8,0.9-8.1,1.1-12.3c0.3-5.6-1.1-11.6-1.1-11.7c0-0.1-0.2-0.2-0.3-0.2c-0.1,0-0.3,0.1-0.3,0.3
			c0,0.1-0.4,6.3-1.2,13.1c-0.5,4.2-1.1,8.2-1.5,10.4c-0.6-0.1-1.2-0.1-1.8-0.1c0.3-2.8,0.8-9.4,0.6-15.4
			c-0.2-5.7-2.8-12.2-2.9-12.3c-0.1-0.1-0.2-0.2-0.3-0.2c-0.1,0-0.2,0.2-0.2,0.3c0,0.1,0.4,9.9,0.4,15.8c0,4.6-0.2,9.3-0.4,11.7
			c-0.6,0-1.2,0-1.8,0c0.1-3.4,0.1-12.2-1.5-17.1c-1.1-3.3-2.8-7-2.9-7c-0.1-0.1-0.2-0.2-0.3-0.2c-0.1,0-0.2,0.2-0.2,0.3
			c0,0.1,1.2,9.5,1.6,14.7c0.3,3.5,0.4,7.4,0.5,9.5c-0.6,0.1-1.2,0.1-1.7,0.2c-0.2-2.6-0.9-8.1-2.3-11.8c-1.2-3.3-3.6-6.7-3.6-6.7
			c-0.1-0.1-0.2-0.2-0.4-0.1c-0.1,0.1-0.2,0.2-0.2,0.3c0,0.1,1.6,6.3,2.1,9.3c0.5,2.9,1.1,7.3,1.4,9.4c-0.5,0.1-1,0.2-1.5,0.4l0-0.2
			c-0.2-1.1-0.2-1.6-1.3-4.6c-2-5.7-5.1-9.5-5.1-9.6c-0.1-0.1-0.3-0.1-0.4-0.1c-0.1,0.1-0.2,0.2-0.1,0.4c0,0,0.9,2.1,3,8.6
			c1.4,4.6,1.7,5.7,1.7,6c-0.4,0.1-0.9,0.3-1.3,0.4c-0.5-1.3-1.4-3-2.6-5.2c-0.7-1.3-2.8-3.5-2.9-3.6c-0.1-0.1-0.3-0.1-0.4,0
			c-0.1,0.1-0.2,0.2-0.1,0.4c0,0,1.5,3.2,2.2,4.8l1.7,4.4c-0.4,0.2-0.8,0.3-1.1,0.5c-0.3-0.9-0.5-1.5-1.9-4
			c-2.9-5.3-6.5-8.6-6.6-8.6c-0.1-0.1-0.3-0.1-0.4,0c-0.1,0.1-0.1,0.3,0,0.4c0,0,1.3,1.9,4.3,8c1.6,3.2,2.2,4.6,2.5,5.3
			c-0.5,0.3-1.1,0.5-1.6,0.8c-0.9-1.7-2.5-4-4.7-7.1c-3.4-4.5-7.4-7.7-7.4-7.7c-0.1-0.1-0.3-0.1-0.4,0c-0.1,0.1-0.1,0.3,0,0.4
			l5.8,8.8c2.4,3.6,3.8,5.9,4.4,7.1c-0.4,0.3-0.9,0.5-1.3,0.8c-1.5-2.1-5.2-6.6-8.3-10c-3.8-4.2-9-7.5-9-7.5c-0.1-0.1-0.3,0-0.4,0.1
			c-0.1,0.1-0.1,0.3,0,0.4c0,0,4.2,4.8,8.4,10.1c2.9,3.6,5.5,7.3,6.6,8.9c-0.5,0.4-0.9,0.7-1.4,1.1c-1.5-1.9-6.1-7.4-10.9-11.7
			c-4.2-3.8-10.6-6.6-10.7-6.7c-0.1-0.1-0.3,0-0.4,0.1c-0.1,0.1-0.1,0.3,0,0.4c0.1,0.1,7.2,6.7,11.5,10.9c3.5,3.5,6.9,7.3,8.3,8.9
			c-0.4,0.4-0.8,0.8-1.2,1.3c-2.1-2.2-8.7-8.9-13.5-11.4c-3.1-1.6-6.9-2.9-7-2.9c-0.1,0-0.3,0-0.3,0.1c-0.1,0.1,0,0.3,0.1,0.4
			c0.1,0.1,7.6,5.9,11.5,9.3c2.9,2.5,6,5.4,7.4,6.7c-0.4,0.4-0.7,0.9-1.1,1.4c-1.8-1.5-6.4-5.3-10.3-7c-3.2-1.4-7.2-2.2-7.3-2.2
			c-0.1,0-0.3,0.1-0.3,0.2c0,0.1,0,0.3,0.1,0.3c0.1,0,5.5,3.3,8.1,5.1c2.6,1.8,6.5,4.8,7.9,5.9c-0.4,0.6-0.7,1.1-1.1,1.7
			c-0.6-0.4-1.4-0.9-3.6-1.9c-5.5-2.6-10.3-3.1-10.4-3.1c-0.1,0-0.3,0.1-0.3,0.2c0,0.1,0,0.3,0.2,0.3c0,0,2.1,0.8,8.2,4
			c2.7,1.4,4,2.2,4.8,2.6c-0.2,0.5-0.5,0.9-0.7,1.4c-1.2-0.5-2.8-1-4.7-1.6c-1.4-0.4-4.4-0.5-4.6-0.5c-0.1,0-0.3,0.1-0.3,0.2
			c0,0.1,0.1,0.3,0.2,0.3c0,0,3.4,1.2,5,1.9l3.5,1.6c-0.2,0.4-0.3,0.8-0.5,1.1c-0.6-0.3-1.5-0.6-3.5-1.2c-5.8-1.7-10.7-1.4-10.7-1.4
			c-0.1,0-0.3,0.1-0.3,0.3c0,0.1,0.1,0.3,0.2,0.3c0,0,2.2,0.4,8.7,2.6c2.4,0.8,3.9,1.3,4.7,1.7c-0.2,0.6-0.4,1.2-0.6,1.8
			c-1.8-0.5-4.3-1-7.6-1.4c-5.6-0.8-10.7-0.2-10.7-0.2c-0.1,0-0.3,0.1-0.3,0.3c0,0.1,0.1,0.3,0.2,0.3l10.3,2.1
			c3.5,0.7,5.9,1.3,7.3,1.7c-0.1,0.5-0.2,1.1-0.3,1.6c-2.8-0.4-8-0.9-12.1-1.1c-5.6-0.3-11.6,1.1-11.7,1.1c-0.1,0-0.2,0.2-0.2,0.3
			c0,0.1,0.1,0.3,0.3,0.3c0.1,0,6.3,0.4,13.1,1.2c4.1,0.5,8,1.1,10.2,1.4c-0.1,0.6-0.1,1.2-0.2,1.8c-2.9-0.3-9.4-0.8-15.2-0.5
			c-5.7,0.2-12.2,2.8-12.3,2.9c-0.1,0.1-0.2,0.2-0.2,0.3c0,0.1,0.2,0.2,0.3,0.2c0.1,0,9.9-0.4,15.8-0.4c4.5,0,9,0.2,11.4,0.4
			c0,0.1,0,0.1,0,0.2c0,0.5,0,1.1,0,1.6c-3.6-0.1-12,0-16.9,1.5c-3.3,1.1-7,2.8-7,2.9c-0.1,0.1-0.2,0.2-0.1,0.3
			c0,0.1,0.2,0.2,0.3,0.2c0.1,0,9.5-1.2,14.7-1.6c3.4-0.3,7.1-0.4,9.2-0.5c0.1,0.6,0.1,1.2,0.2,1.8c-2.7,0.3-7.9,0.9-11.5,2.2
			c-3.3,1.2-6.7,3.6-6.7,3.6c-0.1,0.1-0.2,0.2-0.1,0.4c0.1,0.1,0.2,0.2,0.3,0.2c0.1,0,6.3-1.6,9.3-2.1c2.8-0.5,7-1.1,9.1-1.4
			c0.1,0.6,0.3,1.2,0.4,1.8l-0.3,0c-1.1,0.2-1.6,0.2-4.6,1.3c-5.7,2-9.5,5.1-9.6,5.1c-0.1,0.1-0.1,0.3-0.1,0.4
			c0.1,0.1,0.2,0.2,0.4,0.1c0,0,2.1-0.9,8.6-3c5.3-1.7,6-1.7,6.1-1.7c0,0,0,0,0.1,0c0.1,0.4,0.3,0.9,0.4,1.3c-1.3,0.5-3,1.4-5.4,2.6
			c-1.3,0.7-3.5,2.8-3.6,2.9c-0.1,0.1-0.1,0.3,0,0.4c0.1,0.1,0.2,0.2,0.4,0.1c0,0,3.2-1.5,4.8-2.2l4.5-1.7c0.2,0.4,0.3,0.8,0.5,1.2
			c-0.9,0.3-1.5,0.5-4.2,2c-5.3,2.9-8.6,6.5-8.6,6.6c-0.1,0.1-0.1,0.3,0,0.4c0.1,0.1,0.3,0.1,0.4,0c0,0,1.9-1.3,8-4.3
			c3.5-1.7,4.9-2.3,5.4-2.5c0.3,0.5,0.5,1.1,0.8,1.6c-1.7,0.9-4.1,2.5-7.2,4.8c-4.5,3.4-7.7,7.4-7.7,7.4c-0.1,0.1-0.1,0.3,0,0.4
			c0.1,0.1,0.3,0.1,0.4,0l8.8-5.8c3.7-2.5,6.1-3.9,7.2-4.5c0.3,0.4,0.5,0.9,0.8,1.3c-2,1.5-6.6,5.3-10.1,8.4c-4.2,3.8-7.5,9-7.5,9
			c-0.1,0.1,0,0.3,0.1,0.4c0.1,0.1,0.3,0.1,0.4,0c0,0,4.8-4.2,10.1-8.4c3.7-3,7.4-5.6,9-6.7c0.4,0.5,0.7,0.9,1.1,1.4
			c-1.8,1.4-7.4,6.1-11.9,11c-3.8,4.2-6.6,10.6-6.7,10.7c-0.1,0.1,0,0.3,0.1,0.4c0.1,0.1,0.3,0.1,0.4,0c0.1-0.1,6.7-7.2,10.9-11.5
			c3.6-3.6,7.5-7.1,9-8.4c0.4,0.4,0.8,0.8,1.3,1.2c-2,1.9-8.9,8.7-11.5,13.6c-1.6,3.1-2.9,6.9-2.9,7c0,0.1,0,0.3,0.1,0.3
			c0.1,0.1,0.3,0,0.4-0.1c0.1-0.1,5.9-7.6,9.3-11.5c2.6-3,5.5-6.2,6.8-7.5c0.4,0.4,0.9,0.7,1.4,1.1c-1.5,1.7-5.3,6.5-7.1,10.4
			c-1.4,3.2-2.2,7.2-2.2,7.3c0,0.1,0.1,0.3,0.2,0.3c0.1,0,0.3,0,0.3-0.1c0-0.1,3.3-5.5,5.1-8.1c1.8-2.7,4.9-6.7,6-8
			c0.6,0.4,1.1,0.7,1.7,1.1c-0.5,0.7-0.9,1.3-2,3.7c-2.6,5.5-3.1,10.3-3.1,10.4c0,0.1,0.1,0.3,0.2,0.3c0.1,0,0.3,0,0.3-0.2
			c0,0,0.8-2.1,4-8.2c1.5-2.8,2.3-4.2,2.7-4.9c0.4,0.2,0.9,0.5,1.3,0.7c-0.5,1.2-1,2.8-1.6,4.9c-0.4,1.4-0.5,4.4-0.5,4.6
			c0,0.1,0.1,0.3,0.2,0.3c0.1,0,0.3-0.1,0.3-0.2c0,0,1.2-3.4,1.9-5l1.7-3.7c0.4,0.2,0.8,0.3,1.1,0.5c-0.3,0.6-0.6,1.5-1.2,3.6
			c-1.7,5.8-1.4,10.7-1.4,10.7c0,0.1,0.1,0.3,0.3,0.3c0.1,0,0.3-0.1,0.3-0.2c0,0,0.4-2.2,2.6-8.7c0.8-2.6,1.4-4,1.7-4.8
			c0.6,0.2,1.2,0.4,1.8,0.6c-0.5,1.8-1,4.4-1.5,7.7c-0.8,5.6-0.2,10.7-0.2,10.7c0,0.1,0.1,0.3,0.3,0.3c0.1,0,0.3-0.1,0.3-0.2
			l2.1-10.3c0.7-3.6,1.3-6,1.7-7.5c0.5,0.1,1.1,0.2,1.6,0.3c-0.4,2.8-0.9,8-1.1,12.3c-0.3,5.6,1.1,11.6,1.1,11.7
			c0,0.1,0.2,0.2,0.3,0.2c0.1,0,0.3-0.1,0.3-0.3c0-0.1,0.4-6.3,1.2-13.1c0.5-4.1,1.1-8.1,1.5-10.3c0.6,0.1,1.2,0.1,1.8,0.2
			c-0.3,2.9-0.8,9.4-0.6,15.3c0.2,5.7,2.8,12.2,2.9,12.3c0.1,0.1,0.2,0.2,0.3,0.2c0.1,0,0.2-0.2,0.2-0.3c0-0.1-0.4-9.9-0.4-15.8
			c0-4.5,0.2-9.1,0.4-11.5c0.1,0,0.2,0,0.3,0c0.5,0,1,0,1.5,0c-0.1,3.5,0,12.1,1.5,17c1.1,3.3,2.8,7,2.9,7c0.1,0.1,0.2,0.2,0.3,0.2
			c0.1,0,0.2-0.2,0.2-0.3c0-0.1-1.2-9.5-1.6-14.7c-0.3-3.4-0.4-7.2-0.5-9.3c0.6-0.1,1.2-0.1,1.8-0.2c0.2,2.7,0.9,8,2.3,11.6
			c1.2,3.3,3.6,6.7,3.6,6.7c0.1,0.1,0.2,0.2,0.4,0.1c0.1-0.1,0.2-0.2,0.2-0.3c0-0.1-1.6-6.3-2.1-9.3c-0.5-2.8-1.1-7-1.4-9.2
			c0.5-0.1,1-0.2,1.6-0.4c0.1,1,0.2,1.6,1.3,4.5c2,5.7,5.1,9.5,5.1,9.6c0.1,0.1,0.3,0.1,0.4,0.1c0.1-0.1,0.2-0.2,0.1-0.4
			c0,0-0.9-2.1-3-8.6c-1.2-3.8-1.5-5.2-1.6-5.8c0.5-0.1,0.9-0.3,1.4-0.4c0.5,1.2,1.3,2.9,2.5,5c0.7,1.3,2.8,3.5,2.9,3.6
			c0.1,0.1,0.3,0.1,0.4,0c0.1-0.1,0.2-0.2,0.1-0.4c0,0-1.5-3.2-2.2-4.8l-1.6-4.2c0.4-0.1,0.8-0.3,1.1-0.5c0.3,0.8,0.6,1.5,1.8,3.8
			c2.9,5.3,6.5,8.6,6.6,8.6c0.1,0.1,0.3,0.1,0.4,0c0.1-0.1,0.1-0.3,0-0.4c0,0-1.3-1.9-4.3-8c-1.4-2.8-2.1-4.3-2.4-5
			c0.6-0.3,1.1-0.5,1.6-0.8c0.9,1.7,2.4,3.9,4.6,6.8c3.4,4.5,7.4,7.7,7.4,7.7c0.1,0.1,0.3,0.1,0.4,0c0.1-0.1,0.1-0.3,0-0.4l-5.8-8.8
			c-2.2-3.3-3.6-5.6-4.3-6.8c0.4-0.3,0.9-0.6,1.3-0.9c1.6,2.2,5.2,6.5,8.1,9.8c3.8,4.2,9,7.5,9,7.5c0.1,0.1,0.3,0,0.4-0.1
			c0.1-0.1,0.1-0.3,0-0.4c0,0-4.2-4.8-8.4-10.1c-2.8-3.5-5.2-6.9-6.5-8.6c0.5-0.4,0.9-0.8,1.4-1.1c1.7,2.1,6.1,7.3,10.7,11.5
			c4.2,3.8,10.6,6.6,10.7,6.7c0.1,0.1,0.3,0,0.4-0.1c0.1-0.1,0.1-0.3,0-0.4c-0.1-0.1-7.2-6.7-11.5-10.9c-3.4-3.4-6.6-6.9-8.1-8.7
			c0.4-0.4,0.8-0.8,1.2-1.3c2.3,2.4,8.6,8.7,13.3,11.1c3.1,1.6,6.9,2.9,7,2.9c0.1,0,0.3,0,0.3-0.1c0.1-0.1,0-0.3-0.1-0.4
			c-0.1-0.1-7.6-5.9-11.5-9.3c-2.8-2.3-5.7-5-7.1-6.4c0.4-0.4,0.7-0.9,1.1-1.4c2,1.6,6.3,5.1,10,6.8c3.2,1.4,7.2,2.2,7.3,2.2
			c0.1,0,0.3-0.1,0.3-0.2c0-0.1,0-0.3-0.1-0.3c-0.1,0-5.5-3.3-8.1-5.1c-2.4-1.7-6-4.4-7.7-5.7c0.4-0.6,0.7-1.1,1.1-1.7
			c0.6,0.4,1.4,0.8,3.3,1.7c5.5,2.6,10.3,3.1,10.4,3.1c0.1,0,0.3-0.1,0.3-0.2c0-0.1,0-0.3-0.2-0.3c0,0-2.1-0.8-8.2-4
			c-2.3-1.2-3.7-2-4.4-2.4c0.3-0.5,0.5-0.9,0.7-1.4c1.1,0.4,2.6,0.9,4.4,1.4c1.4,0.4,4.4,0.5,4.6,0.5c0.1,0,0.3-0.1,0.3-0.2
			c0-0.1-0.1-0.3-0.2-0.3c0,0-3.4-1.2-5-1.9l-3.2-1.5c0.2-0.4,0.3-0.8,0.5-1.1c0.6,0.2,1.5,0.5,3.1,1c5.8,1.7,10.7,1.4,10.7,1.4
			c0.1,0,0.3-0.1,0.3-0.3c0-0.1-0.1-0.3-0.2-0.3c0,0-2.2-0.4-8.7-2.6c-2.1-0.7-3.5-1.2-4.4-1.5c0.2-0.6,0.4-1.2,0.6-1.8
			c1.8,0.5,4.2,0.9,7.2,1.3c5.6,0.8,10.7,0.2,10.7,0.2c0.1,0,0.3-0.1,0.3-0.3c0-0.1-0.1-0.3-0.2-0.3l-10.3-2.1
			c-3.2-0.6-5.5-1.2-7-1.6c0.1-0.5,0.2-1.1,0.3-1.6c2.9,0.4,7.8,0.8,11.8,1.1c5.6,0.3,11.6-1.1,11.7-1.1c0.1,0,0.2-0.2,0.2-0.3
			c0-0.1-0.1-0.3-0.3-0.3c-0.1,0-6.3-0.4-13.1-1.2c-3.9-0.4-7.6-1-9.9-1.4c0.1-0.6,0.1-1.2,0.2-1.9c3.1,0.3,9.2,0.7,14.9,0.5
			c5.7-0.2,12.2-2.8,12.3-2.9c0.1-0.1,0.2-0.2,0.2-0.3C213.9,79.3,213.8,79.2,213.7,79.2z"/>
	</g>

	<g class="logo-leaf">
		<path fill="#008B3B" d="M219.7,60.2c0,0-1.1,4.6-8.8,7.6c-4,1.6-13.2-0.2-13.2-0.2l-7,8.1c0,0,5.1-4.3,10-3.5
			c3.9,0.6,5.8,1.7,8.6,1.9c2.8,0.2,7.4,1,7.4,1s-7.5,7.3-15.1,5.5c-7.9-1.8-13.5-2.6-13.5-2.6l-6.1,5.2c0,0,5.4-0.8,9.3-0.1
			c5.3,0.9,15.2,3.7,15.6,6.7c0.2,1.5-12.6,3.4-16.7,3c-6-0.5-11.2-7.2-11.2-7.2l-9.5,6.3c0,0,6.8-0.3,10.7,0.2
			c7.7,1,15.8,8.2,15.8,8.2s-5.5,2.5-16.4,2.7c-13.4,0.2-14.1-8.2-14.1-8.2l-8.1,4.8l-0.8-6.4c0,0,0.5-1.2-0.1-2
			c-0.4-0.6-0.1-16.7-0.1-16.7s3.1-4.1,3.8-6c0.7-1.9,1.6-6.2,2.1-6.1c0.7,0.2,1.5,7.1,0.6,13.4c-0.7,4.7,0.8,6.1,1,8
			c0.3,3.3-0.2,6.1-0.9,8c-0.7,1.9-1,3.6-1,3.6s11-6.7,11.8-7.6c0.8-0.9-3.8-2.3-5.3-4.6c-1.2-1.8-2.6-6.1-1.7-13.4
			c1.3-10.5,7.1-15.5,7.1-15.5s0.6,6.9,1,9.5c0.3,2.7,2.4,11.6,2.5,14.5c0.1,4.2-1.5,7.7-1.5,7.7l7.2-5.7c0,0-2.9-5.6-3.3-9
			c-1.2-12.5,4.4-27.6,5.2-28.5c0.8-0.9,4.4,11.7,4.7,14.5c1.3,13-4.1,21-4.1,21l11.2-11c0,0-4-5.9-3.9-11.7
			c0.2-11.3,3.6-15.8,3.6-15.8s1.3,7.3,2.9,10.5c0.4,0.8,2,5.9,2,8.8c0,1.6-0.7,3.1-0.7,3.1l4.2-5c0,0-0.1-6.5,0.6-8.6
			c0.7-2,2.2-4,4-5.5c3.3-2.8,6.1-7.3,6.1-7.3s1.5-1.7,1.5-1.1c0,0.6,0,11.6-1.7,15.7c-2.9,6.8-9.4,6.7-9.4,6.7l-6.5,8.4
			c0,0,0.8-0.2,2.1-0.8c1.3-0.6,1.6-3.6,5.5-4.6C212.3,58.6,219.7,60.2,219.7,60.2"/>

		<path fill="#008B3B" d="M56.5,123.9c0,0,0.7-1.9,1-3.2c0.2-1.3,0.6-2.3,0.6-2.3s5.4,0.1,7,0.5c1.5,0.4,11.3,1.2,13.7,1.6
			c2.4,0.4,10.9,0.8,10.9,0.8s-5.7-4-6.7-6.1c-1.1-2.2-1.6-7.7-1.1-8.6c0.4-0.9,6.1,3.3,7.1,4.4c4.2,4.5,2.7,10.2,2.7,10.2l1.4,0.1
			c0,0-1.2-2-1.3-4c-0.1-1.3,0.9-4.5,3.2-8.1c1.7-2.5,5.2-5.4,5.2-5.4s-1.2,5.3-1,6.6c0.2,1.3,0.5,3.5-0.2,6.3
			c-0.5,2.1-3.5,4.5-3.5,4.5s5.2-0.8,8.1-1.4c2.8-0.7,8.6-2.4,8.6-2.4s-8.8-5.8-10.1-10.4c-3.6-12.7,3.9-22.6,4.3-23.2
			c0.4-0.7,0.6,8.6,2.2,11.2c1.5,2.6,5.2,7.7,5.8,11.3c0.8,4.9-0.8,10.7-0.8,10.7l6.8-2.2c0,0-3.6-6.3-4.3-10.9
			c-0.9-6.5,1.7-15.7,2.7-17.9c1.2-2.5,3-6.1,3.4-7.6c0.7-2.4,0.9-6,0.9-6l2.4,9l0.1,11.4c0,0-1.1,1.1-1,2.5
			c0.3,3,0.2,14.9,0.2,14.9l-0.9,1.9l-0.8,1.7l2.6-1.3l2.9,1l-5.4,2.1c0,0,10.5,3.3,16.7,7.8c3.9,2.8,10.4,15.6,10.4,15.6
			s-12.1-2.2-21.2-9.9c-3.9-3.3-8.1-13.1-8.1-13.1l-9.6,3.3c0,0,6.4,2.3,8.5,5c3.3,4.2,4.4,9.1,5,12.2c0.6,3.1,1.8,4.9,2.9,7.2
			c1.7,3.6,2.2,3.4,2.2,3.4s-5-0.1-12.7-7.7c-7.1-7-7.4-19.7-7.4-19.7s-1.9,0.2-5.7,1.3c-3.4,1-7.1,1.3-7.1,1.3s5.1,1.6,7.1,5.2
			c1.6,3,5.2,14.5,5.2,14.5s-11.5-4.4-14-8.4c-3.6-5.7-2.1-10.9-2.1-10.9s-9.4,0.6-14.7-0.2c-6.7-1.1-12.8-1.5-14.5-1.3
			C61.6,121.3,56.5,123.9,56.5,123.9z"/>
		<path fill="#008B3B" d="M134.4,114.6c0,0,3.6,4.9,11.3,7.2c14.3,4.3,24.1,0.2,24.1,0.2s-1.8-0.9-3.8-2.3c-3.2-2.3-3.6-3.6-6.1-5.2
			c-1.8-1.1-3.4-1.8-3.4-1.8s-9.5,1.9-11.6,2C142.8,114.9,134.4,114.6,134.4,114.6z"/>
		<path fill="#008B3B" d="M157.3,109.2V101c0,0,5.3-1,9.7,1.1c4.5,2.2,8.5,4,10.7,9.5c2,5,2,8.4,2,8.4s-2.7-4.2-7.2-5.8
			c-2.8-1-4.6-0.9-7.1-2C162.9,111.2,157.3,109.2,157.3,109.2z"/>
	</g>

	<g class="logo-hat">
		<path d="M125.4,95.4v-43c0,0,2.2-3.1,15.2-3.1c14.7,0,16,2.7,16,2.7v43.7"/>
		<line x1="127.5" y1="94.6" x2="127.5" y2="51.3"/>
		<line x1="130.9" y1="50.3" x2="130.9" y2="93.7"/>
		<line x1="134.6" y1="49.8" x2="134.6" y2="93.4"/>
		<line x1="138.7" y1="49.6" x2="138.7" y2="93.2"/>
		<line x1="142.9" y1="49.5" x2="142.9" y2="93.1"/>
		<line x1="146.9" y1="49.9" x2="146.9" y2="93.4"/>
		<line x1="151" y1="50" x2="151" y2="94"/>
		<line x1="154.7" y1="51.1" x2="154.7" y2="95"/>
		<path d="M157.3,114.4v-18c0,0-2.2-3.1-16.3-3.1c-11.9,0-16.2,2.5-16.2,2.5v18.8"/>
		<path d="M125.4,114.7c0,0,5.7,2.2,15.6,2.2c10.6,0,15.8-2.5,15.8-2.5s-5.3-2.6-14.8-2.6
			C130.7,111.8,125.4,114.7,125.4,114.7z"/>
	</g>
</g>


<g class="logo-label logo-labelBig">
	<g>
		<path fill="#283583" d="M66.1,176.7c0,0,7.8-4.8,8.4-5.1s5-3.4,4.5-2.1c-0.4,0.9-1.5,1.8-3.1,4.6c-1.2,2.2-1.4,3.5-0.9,3.5
			s1,0.2-0.1,1c-1,0.8-2.5,1.6-3,0.8s0.2-4.1,0.2-4.1s0.2-1.1-0.8-0.5s-2.5,1.8-3.5,2.4c-0.7,0.4-2.1,1.5-2.2,0.9
			S66.1,176.7,66.1,176.7z"/>
		<path fill="#283583" d="M75.2,196.7v-1.4l5.6-10.1c0,0,1.1-1.8,2.2-2.4c0.8-0.4,2.2-0.4,2.2-0.4l-1.2,2.8c0,0,5.6-3.8,7-4.2
			c1.2-0.4,3.5-0.5,4.2,1.1c0.5,1-0.1,2.3-2,2.6c-1.4,0.2-1.6-2.1-3-1.6c-1.9,0.6-3.6,1.9-3.6,1.9s-2.2,1.9-3.5,3.1
			c-0.7,0.7-3.8,6.5-4.4,7.2S75.2,196.7,75.2,196.7z"/>
		<path fill="#283583" d="M0,182.5l0.2-1.8c0,0,8.9-12.9,17.8-18.5c6.9-4.4,13.5-6.6,15.9-5.2c0.9,0.5,1.3,2.3-0.1,6
			c-3.2,8.6-13.8,22.6-13.8,22.6s19-15.2,22.4-14.6c2,0.4,0.2,3.8-1.4,5.6c-2.3,2.7-10.4,11-10.4,11l13.2-9c0,0,2.8-1.2,2.5,0
			s-11.4,11.1-10.8,13.6c0.5,1.7,9.4-2.6,11.1-4.1c1.1-1,3.4-2.4,4.6-3.1c4.9-3,9.9-5.1,10-3.8c0.1,1.2-4,6.5-4.8,8.2
			s-0.8,3.1,0.6,3.1c3.5,0,9.4-9.9,9.8-9.9s3-1.4,3-1.4s1,0.1,0.6,0.6c-1.7,2.3-7.5,9.1-8.5,10.8c-0.8,1.2-0.6,1.3,0.2,1.1
			c3.6-0.9,5.9-2.5,6.2-2.9s5.9-7.8,5.9-7.8s-1.3,0.2-2,0c-0.4-0.1,1.1-2,1.8-2.5s1.6-0.9,1.6-0.9h1c0,0,7.1-8.1,9.6-11
			c4.6-5.4,10.9-10.9,10.9-10.9l2.2,0.1c0,0-6.7,5.8-10.6,10.1c-4.1,4.6-9.9,11.5-9.9,11.5l8.6-0.6c0,0-0.9,1.4-7.9,3
			c-2,0.5-3.6,0.9-3.6,0.9s-5,6.9-5.8,8.9c-0.5,1.4-0.8,3.9,0.5,4.1s2.8-0.6,2.8-0.6s0.5,1.2-0.8,1.5c-1.2,0.3-2.4,0.9-3.9,0
			c-1.4-0.9-1.1-4-1.1-4s-4.9,2.9-8.2,3.5c-2,0.4-1.9-2-1.9-2l-0.9,0.2c0,0-1.9,1.7-3.2,1.4c-2-0.5-1.1-4.8-1.1-4.8
			s-0.4-0.4-0.8-0.1s-7.4,6.2-9.8,5.4c-1.4-0.5,1.1-4.9,1.1-4.9s-8.1,4.3-9.9,4.6c-5.4,1,5.4-12.1,5.4-12.1l-15.5,11.1
			c0,0-1.8,1.5-2.5,1.5s0.1-1.4,1.1-2.5c0.4-0.5,13.3-13.8,13.9-14.5c2.9-3.1,3.1-5.5,1.1-4.2c-18.2,12-26.7,20.6-27.1,21.2
			c-0.2,0.4-1.8,0.1-1.8,0.1s5-5.1,10.2-12.2c2.4-3.3,4.2-6.6,6.8-10.6c3.6-5.8,6.8-13.7,3.1-13.5C15.1,161.2,0,182.5,0,182.5z
			 M46.2,192.7c0.1,0.5,3-1.3,4.9-2.9c1.5-1.2,0.9-0.1,1.8-0.9c2.3-2.3,4.2-4.9,3.9-5.1c-0.4-0.3-4.4,1.9-7,4.1
			C49.8,188,45.9,191.2,46.2,192.7z"/>
		<path fill="#283583" d="M90.8,193.1c0.2,1.8,4.4,0.6,5.6,0.2c2-0.6,4.8-2.5,4.8-2.5s0.1,0.9-0.6,1.5c-1.5,1.4-2,1.8-1.2,2.2
			c3.2,1.9,7.1,0.2,8.4-0.8c1.2-1-2-4.4-2.9-5.4c-1-1.1-1.1-3.4-0.8-4.1s5.1-3.4,7-3.9c3.5-0.9,3.1,1.6,2.6,2.8
			c-0.5,1.1-2.9,2.4-2.9,2.4s0.2-0.9,0-2.2c-0.1-0.8-1.9-1-3.2,0.2c-0.8,0.7,0.1,2.6,1.4,4.1s2.5,3.4,2,4.5s-2.8,3.4-4.9,3.9
			c-1.6,0.4-4.9,0.6-7.1,0.1c-0.7-0.2-2-1.1-2.4-1.6l-0.8,0.1c0,0-4,1.5-5.5,1.6c-1.1,0.1-5.4-0.4-0.5-6.2c1.1-1.3,2.5-3,5-4.8
			c2.7-1.9,5.7-3,6.9-3.4c2.6-0.8,2.4,1.1,1.2,2.5c-0.2,0.2-2.1,1.8-3.8,2.5c0,0-3.2,2-6.1,2.6C93,189.6,90.4,190.9,90.8,193.1z
			 M94,187.8c0,0,1.2-1.4,2.4-2.2c1.3-1,3.8-2,3.4-1.1s-1.2,1.5-2.9,2.4C95.4,187.6,94,187.8,94,187.8z"/>
	</g>
	<g>
		<path fill="#283583" d="M171,163.5c0-3.2-2-10.4-24,3.3c-6.2,3.8-13.7,10.5-18.7,17.2c-4.2,5.6-5.1,10.2,0.4,10.2
			c12.3-0.2,23.7-6.7,23.7-6.7l3.3-4.5l3.4-0.8l-6.8,9.8c0,0-1.5,2.5,0.1,2c1.4-0.5,4.8-2.1,4.8-2.1l6-9.1l3.2-0.6l-6.4,10.1
			c0,0-1.4,2.1,0.1,1.9c2-0.3,4.8-2.3,5.5-3.4c1.8-2.7,5.7-7.9,5.7-7.9l3.2-0.5L168,192c0,0-1.6,2.4,0,2.2c1.4-0.2,2.1-0.7,3.7-1.7
			c0.9-0.6,2.2-1.5,3.9-2.6l-0.1,1.2c0,0-1.1,1-5.3,3.5c-2,1.2-4.4,2.1-6,1.8c-1.3-0.3-0.6-2.5-0.6-2.5s-0.9,0.7-2.5,1.5
			c-1.3,0.7-4.2,1.7-5,1c-0.6-0.5-0.5-1.9-0.5-1.9s-1.3,0.5-3.2,1.3c-1.4,0.6-4.3,1.5-4.3,0c0-1.5,1.9-5.2,1.9-5.2l-2.2,0.9
			c0,0-6.2,3-15.7,5.3c-4.2,1-11.7,3.3-11.3-3.5c0.3-5.3,11.2-16.4,16.5-20.8c18.5-15.5,31.4-17.1,34.8-15
			C175.3,159.5,171,163.5,171,163.5z"/>
		<path fill="#283583" d="M185.9,180.5c0,0-1.9,0.8-3.6,1.7c-1.7,0.8-2.3,1.2-3.2,2c-1.2,1.1-0.1,2.1,1,3.6c0.6,0.8,2.8,3.3,2.8,3.3
			l2.2-0.6l5.5-8l2.8-0.2c0,0-6.4,9.4-6.7,10.3c-0.4,1.4,2.3,0.6,2.3,0.6l5.2-2.4l1.2-0.1c0,0-3.1,2.5-7.2,4.3
			c-2.2,1-4.2,1.8-5.2,1.1c-1.1-0.7,1-4.2,1-4.2l-1.1,0.2c0,0,0,2.4-4,4.5c-6.7,3.6-9.3,3.9-10.3,3.8c-1.1-0.1-1.3-1.1,0.5-2.6
			c2.7-2.2,8.7-4.8,9.1-5.2c0.4-0.4-2-2.4-3.2-4.3c-1.4-2.4-0.6-3.4,1.3-4.8c1.5-1,3.3-1.8,4.8-2.4c3.7-1.4,5.2-1.4,5.2-1.4
			L185.9,180.5z M172.6,197.9c6.2-2.3,5.9-3.7,5.2-3.4c-0.7,0.2-2.2,0.8-3,1.2c-1.5,0.8-1.9,1-3.3,2.1
			C171.4,197.8,171.3,198.3,172.6,197.9z"/>
		<path fill="#283583" d="M191.2,190c0,0,5-3.5,7.8-5.3c2.2-1.5,5.8-3.2,6-2.3c0.2,0.5-1.8,2.6-3.2,4.7c-1.4,2-2.4,3.3-2.4,3.3
			s3.3-2.8,5.9-4.6c3.7-2.6,6.2-4,6.5-2.8c0.2,1-7.1,7.8-7.5,10.6c-0.1,0.7,4-1,6.2-3.5c4-4.4,7.4-7.5,7.4-7.5l3.2-0.1
			c0,0-5.6,6-7.5,8.4c-0.9,1.1-4,4.3-1,3.8c0.5-0.1,2.3-0.6,2.3-0.6v0.8c0,0-1.9,1.1-3.9,1.7c-1.7,0.5-3,0.4-3.1-0.5
			c-0.1-0.9,0.7-2.7,0.7-2.7s-4.2,2.3-5.7,3c-1.6,0.7-2.2-0.5-1.8-1.6c0.5-1.1,4.5-6.8,4.5-6.8s0.5-1.3-0.7-0.5
			c-0.9,0.6-8.9,8.7-10.1,8.8c-1.2,0.2-2,0.3-1.2-1.2c0.8-1.6,2.2-3.3,2.8-4.7c0.4-0.8,2.2-3.7,1.3-3.2c-0.9,0.6-3.7,2.2-4.8,2.9
			C191.8,190.7,191.2,190,191.2,190z"/>
		<path fill="#283583" d="M254.9,180.1c0,0-4.9,1.6-8.4,4.6c0,0-1.2,2.2,0.4,4.4c1.2,1.6,2.9,3.2,2,4.5c-1.5,2.1-6.6,2-7.4,1.8
			s-1.7-0.7-1.2-1.9c0.4-0.9,3.2-1.5,3.1-1.9s-3.8,0.4-4.5,2s0.2,2.8,1.9,3c3.6,0.6,6.5-0.5,7.5-1c3.9-1.9,5-3.8,5-3.8l0.1-1.8
			c0,0-3.4-3.2-3.1-5.9c0.1-1.5,2.6-2.2,3.2-2.1s0.1,1.2-0.1,1.9s0.4,0.5,1,0s2-1.2,2-1.2s-0.6,0.8,0.4,0.8c0.5,0,4.6-6.1,14.5-9.9
			c5.6-2.1,10-1.8,12,2.1c0.9,1.8,0.5,2.5,1,1.5c0.3-0.6-0.2-5.9-5.9-6.4c-3.9-0.3-9.2,1.4-15.1,5.6c-2.3,1.7-5.9,5-5.9,5
			s0.2-1.5-0.5-1.6S254.9,180.1,254.9,180.1z"/>
		<path fill="#283583" d="M224.5,188.8c-6.1,3.4-5.2,3-5.2,3s0.1,2,2,2.2c4.1,0.6,7.5-1.5,7.5-1.5l5.4-9.4l3.8-1.1l-1.5,3.2
			c0,0,4.9-3.8,6.8-4.5c1.9-0.8,4.6-0.4,4.6,1.5c0,1-1.9,2.1-2.8,2.2s0-1.4-2.3-1.6c-1.2-0.1-5.2,2.9-6.9,4.8
			c-1.4,1.5-5.1,7.6-5.1,7.6l-3.8,0.9c0,0,0.5-0.9,0.8-1.8l-1.6,0.6c0,0-2,1.1-6,1c-5.5-0.1-4.8-3-3.9-4.8c1-2.1,3.8-4,3.8-4
			c3.9-3.2,8.6-5.8,10.5-5.2C231.9,182.5,230.6,185.5,224.5,188.8z M221.3,189.3c5.7-3.4,5.1-4.7,4.4-4.3c-0.6,0.4-2,1.2-2.7,1.8
			c-1.3,1-1.7,1.3-2.9,2.7C220.1,189.4,220.1,189.9,221.3,189.3z"/>
		<path fill="#283583" d="M220.5,176.6c1.1-1.5,4.3-2.9,4.9-2.5c0.5,0.4,0.9,1.4-2.1,2.6C221.4,177.5,220,177.3,220.5,176.6z"/>
		<path fill="#283583" d="M192.4,178.1c1.2-1.3,4.4-2.6,4.9-2.2c0.5,0.3,0.9,1.2-2.2,2.3C193.2,178.8,191.9,178.7,192.4,178.1z"/>
		<path fill="#283583" d="M173.8,176.2c1.2-1.3,4.4-2.5,4.9-2.2c0.5,0.3,0.9,1.1-2.2,2.2C174.6,176.9,173.2,176.8,173.8,176.2z"/>
	</g>
</g>

<g class="logo-label logo-labelSmall">
	<path fill="#CD1719" d="M111.6,210.9h1.1c1.4,0,2.5,0.9,2.5,2.5c0,1.7-0.9,2.5-2.6,2.5h-1V210.9z M110.7,216.7h2 c2.2,0,3.6-1.2,3.6-3.4c0-2.1-1.6-3.3-3.6-3.3h-2V216.7z"/>
	<path fill="#CD1719" d="M119.1,210h3.8v0.8h-2.8v2h2.5v0.8h-2.5v2.2h2.8v0.8h-3.8V210z"/>
	<path fill="#CD1719" d="M129.9,210h3.6v0.8h-2.6v2h2.5v0.8h-2.5v3.1h-1V210z"/>
	<path fill="#CD1719" d="M137.2,210.9h0.9c0.9,0,1.3,0.4,1.3,1c0,0.6-0.5,1-1.5,1h-0.8V210.9z M136.2,216.7h1v-3h0.6 c0.5,0,0.8,0,1.1,0.7l1,2.3h1.1l-1.3-2.7c-0.2-0.4-0.4-0.6-0.7-0.7v0c0.8-0.1,1.4-0.7,1.4-1.5c0-1.6-1.3-1.8-2.6-1.8h-1.6V216.7z"/>
	<path fill="#CD1719" d="M147.5,214.2h-2.7l1.3-3.3L147.5,214.2z M142.8,216.7h1l0.7-1.7h3.3l0.7,1.7h1l-2.8-6.7h-1L142.8,216.7z"/>
	<path fill="#CD1719" d="M151.9,210h1.3l3,5.4h0V210h1v6.7H156l-3-5.5h0v5.5h-1V210z"/>
	<path fill="#CD1719" d="M165,211.1c-0.4-0.2-0.9-0.4-1.4-0.4c-1.5,0-2.6,1.1-2.6,2.6c0,1.6,1.1,2.6,2.5,2.6c0.5,0,1.1-0.1,1.5-0.3 l0.1,0.9c-0.5,0.2-1.1,0.2-1.5,0.2c-2.1,0-3.5-1.4-3.5-3.5c0-2.1,1.5-3.4,3.5-3.4c0.5,0,1,0.1,1.5,0.3L165,211.1z"/>
	<path fill="#CD1719" d="M167.7,210h3.8v0.8h-2.8v2h2.5v0.8h-2.5v2.2h2.8v0.8h-3.8V210z"/>
</g>


<g class="logo-flag">
	<path fill="#283583" d="M108.7,244.1c0,0-2-0.5-2.3-1.5c-0.4-1-1.7-1.4-1.7-1.4s6.2-7.3,21.2-11.3c20.5-5.4,46.3-3.6,46.3-3.6
		l-11,0.2v0.7l8.8,0.4c0,0-22.3,0.1-36.1,3.3C116.5,235.1,108.7,244.1,108.7,244.1z"/>
	<path fill="#FFFFFF" d="M112.7,246.4c0,0-2-0.5-2.3-1.4c-0.4-1-1.6-0.9-1.6-0.9s6.6-8,21.6-12.1c20.5-5.6,45.5-4,45.5-4l-11,0.4
		l0,0.7l8.8,0.3c0,0-22.2,0.6-36,4C120.3,237.7,112.7,246.4,112.7,246.4z"/>
	<path fill="#CD1719" d="M116.9,249.4c0,0-2-0.4-2.4-1.4c-0.4-1-1.8-1.5-1.8-1.5s6.5-7.6,21.3-12c20.4-6.1,45.6-4.9,45.6-4.9l-11,0.6
		l0,0.7l8.8,0.1c0,0-22.3,0.9-36,4.6C124.3,240.2,116.9,249.4,116.9,249.4z"/>
</g>
</svg>
